<svg width="44" height="51" viewBox="0 0 44 51" fill="none" xmlns="http://www.w3.org/2000/svg">
<path d="M18.8571 0C15.4 0 12.5714 2.82857 12.5714 6.28571H6.28571C2.82857 6.28571 0 9.11429 0 12.5714H44C44 9.11429 41.1714 6.28571 37.7143 6.28571H31.4286C31.4286 2.82857 28.6 0 25.1429 0H18.8571ZM6.28571 18.8571V49.0914C6.28571 49.7829 6.78857 50.2857 7.48 50.2857H36.5829C37.2743 50.2857 37.7771 49.7829 37.7771 49.0914V18.8571H31.4914V40.8571C31.4914 42.6171 30.1086 44 28.3486 44C26.5886 44 25.2057 42.6171 25.2057 40.8571V18.8571H18.92V40.8571C18.92 42.6171 17.5371 44 15.7771 44C14.0171 44 12.6343 42.6171 12.6343 40.8571V18.8571H6.34857H6.28571Z" fill="white"/>
</svg>
